<svg xmlns="http://www.w3.org/2000/svg" data-name="Layer 1" viewBox="0 0 24 24"><path fill="#eeb300" d="M23.22,12.71l-1.35,1.43a1,1,0,0,0-.25.95L22.07,17a1,1,0,0,1-.71,1.23l-1.88.56a1,1,0,0,0-.7.7l-.56,1.88a1,1,0,0,1-1.23.71l-1.91-.45a1,1,0,0,0-.95.25l-1.43,1.35a1,1,0,0,1-1.42,0L9.86,21.87a1,1,0,0,0-.95-.25L7,22.07a1,1,0,0,1-1.23-.71l-.56-1.88a1,1,0,0,0-.7-.7l-1.88-.56A1,1,0,0,1,1.93,17l.45-1.91a1,1,0,0,0-.25-.95L.78,12.71a1,1,0,0,1,0-1.42L2.13,9.86a1,1,0,0,0,.25-.95L1.93,7a1,1,0,0,1,.71-1.23l1.88-.56a1,1,0,0,0,.7-.7l.56-1.88A1,1,0,0,1,7,1.93l1.91.45a1,1,0,0,0,.95-.25L11.29.78a1,1,0,0,1,1.42,0l1.43,1.35a1,1,0,0,0,.95.25L17,1.93a1,1,0,0,1,1.23.71l.56,1.88a1,1,0,0,0,.7.7l1.88.56A1,1,0,0,1,22.07,7l-.45,1.91a1,1,0,0,0,.25.95l1.35,1.43A1,1,0,0,1,23.22,12.71Z"/><path fill="#fff" d="M7.78,21.36l-.56-1.88a1,1,0,0,0-.7-.7l-1.88-.56A1,1,0,0,1,3.93,17l.45-1.91a1,1,0,0,0-.25-.95L2.78,12.71a1,1,0,0,1,0-1.42L4.13,9.86a1,1,0,0,0,.25-.95L3.93,7a1,1,0,0,1,.71-1.23l1.88-.56a1,1,0,0,0,.7-.7l.56-1.88a1,1,0,0,1,.3-.46L7,1.93a1,1,0,0,0-1.23.71L5.22,4.52a1,1,0,0,1-.7.7l-1.88.56A1,1,0,0,0,1.93,7l.45,1.91a1,1,0,0,1-.25.95L.78,11.29a1,1,0,0,0,0,1.42l1.35,1.43a1,1,0,0,1,.25.95L1.93,17a1,1,0,0,0,.71,1.23l1.88.56a1,1,0,0,1,.7.7l.56,1.88A1,1,0,0,0,7,22.07l1.08-.26A1,1,0,0,1,7.78,21.36Z"/><circle cx="12" cy="12" r="7.5" fill="#fdd331"/><path fill="#fff" d="M6.5,12A7.5,7.5,0,0,1,13,4.57a7.5,7.5,0,1,0,0,14.85A7.5,7.5,0,0,1,6.5,12Z"/><path d="M23.58,10.95,22.23,9.52A.53.53,0,0,1,22.1,9l.45-1.91A1.53,1.53,0,0,0,21.5,5.3l-1.88-.56a.53.53,0,0,1-.36-.36L18.7,2.5a1.53,1.53,0,0,0-1.82-1.05L15,1.9a.54.54,0,0,1-.49-.13L13.05.42a1.54,1.54,0,0,0-2.1,0L9.52,1.77A.54.54,0,0,1,9,1.9L7.12,1.44A1.53,1.53,0,0,0,5.3,2.5L4.74,4.38a.53.53,0,0,1-.36.36L2.5,5.3A1.54,1.54,0,0,0,1.44,7.12L1.9,9a.53.53,0,0,1-.13.49L.42,10.95a1.54,1.54,0,0,0,0,2.1l1.35,1.43A.53.53,0,0,1,1.9,15l-.45,1.91A1.53,1.53,0,0,0,2.5,18.7l1.88.56a.53.53,0,0,1,.36.36L5.3,21.5a1.53,1.53,0,0,0,1.82,1.05L9,22.1a.53.53,0,0,1,.49.13l1.43,1.35a1.54,1.54,0,0,0,2.1,0l1.43-1.35A.53.53,0,0,1,15,22.1l1.91.45A1.54,1.54,0,0,0,18.7,21.5l.56-1.88a.53.53,0,0,1,.36-.36l1.88-.56a1.54,1.54,0,0,0,1.05-1.82L22.1,15a.53.53,0,0,1,.13-.49l1.35-1.43h0A1.54,1.54,0,0,0,23.58,10.95Zm-.73,1.42-1.35,1.43a1.53,1.53,0,0,0-.38,1.41l.45,1.91a.54.54,0,0,1-.37.64l-1.88.56a1.53,1.53,0,0,0-1,1l-.56,1.88a.54.54,0,0,1-.63.37l-1.91-.45a1.53,1.53,0,0,0-1.41.38l-1.43,1.35a.54.54,0,0,1-.73,0l-1.43-1.35a1.53,1.53,0,0,0-1.41-.38l-1.91.45a.53.53,0,0,1-.64-.37l-.56-1.88a1.53,1.53,0,0,0-1-1l-1.88-.56a.53.53,0,0,1-.37-.63l.45-1.91a1.53,1.53,0,0,0-.38-1.41L1.15,12.37a.54.54,0,0,1,0-.73l1.35-1.43A1.53,1.53,0,0,0,2.87,8.8L2.42,6.89a.54.54,0,0,1,.37-.64l1.88-.56a1.53,1.53,0,0,0,1-1l.56-1.88a.53.53,0,0,1,.63-.37l1.91.45a1.53,1.53,0,0,0,1.41-.38l1.43-1.35a.54.54,0,0,1,.73,0l1.43,1.35a1.53,1.53,0,0,0,1.41.38l1.91-.45a.54.54,0,0,1,.64.37l.56,1.88a1.53,1.53,0,0,0,1,1l1.88.56a.53.53,0,0,1,.37.63L21.13,8.8a1.53,1.53,0,0,0,.38,1.41l1.35,1.43A.54.54,0,0,1,22.85,12.37ZM12,4a8,8,0,1,0,8,8A8,8,0,0,0,12,4Zm0,15a7,7,0,1,1,7-7A7,7,0,0,1,12,19Z"/></svg>